<svg xmlns="http://www.w3.org/2000/svg" viewBox="0 0 249.3 114.6" style="enable-background:new 0 0 249.3 114.6" xml:space="preserve"><path d="M16.4 28.3v13.5c-.1 3.2-2.6 5.8-5.9 5.8H1.9V1.4h8.6c3.2 0 5.8 2.6 5.9 5.8v13.5s.1 2.9-2.7 3.8c2.7.9 2.7 3.8 2.7 3.8zM11.6 8.5c0-1.7-1.2-2.4-2.4-2.4H6.6v16.2h2.6c1.3 0 2.4-.6 2.4-2.7V8.5zm0 20.8c0-2-1.2-2.6-2.4-2.6H6.6v16.2h2.6c1.3 0 2.4-.7 2.4-2.4V29.3zM58.1 42.9c-.5 1.2-1.3 3-1.5 3.4-.3.6-1.1 1.3-2.6 1.3H43.4V2.7c.1-.7.7-1.3 1.5-1.3h12.3l-1.6 3.4c-.3.6-1 1.3-2.5 1.3h-3.8c-.7 0-1.1.5-1.1 1.1V21h7.1c-.5 1.2-1.3 3.1-1.5 3.5-.3.6-1 1.3-2.5 1.3h-2c-.6 0-1.1.5-1.1 1.1v16h9.9zM96 47.6h-2.2c-2.6 0-3-2-3.2-3l-5.1-22.8v25.8h-4.8V1.4h2.2c2.6 0 3.1 1.3 3.4 2.6l4.9 24V1.4H96v46.2zM129.6 1.4c3.2 0 5.8 2.6 5.9 5.8v34.6c-.1 3.2-2.6 5.8-5.9 5.8h-9.2V1.4h9.2zm1.2 7.1c0-1.7-1.2-2.4-2.5-2.4h-3.1v36.8h3.1c1.3 0 2.5-.7 2.5-2.4v-32zM164.7 1.4c1.4 0 1.9 1.1 1.9 1.8v44.3h-3.4c-1.1 0-1.3-.7-1.4-1V1.4h2.9zM208.2 47.6H206c-2.6 0-3-2-3.2-3l-5.1-22.8v25.8H193V1.4h2.2c2.6 0 3.1 1.3 3.4 2.6l4.9 24V1.4h4.8v46.2zM247.4 14c0 1.6-.7 2.2-1.3 2.6-.3.2-2.2 1.1-3.4 1.6V7.6c0-1.4-1.1-2.5-2.5-2.5s-2.5 1.1-2.5 2.5v33.8c0 1.4 1.1 2.5 2.5 2.5s2.5-1.1 2.5-2.5V27.6h-.2c-1.1 0-1.7-1.5-1.7-1.5l-1.6-3.3h5.9c1.5 0 2.3.8 2.3 2.6v16.8c0 3.2-2.6 5.7-5.7 5.9h-2.9c-3.2 0-5.9-2.6-5.9-5.9V6.8c0-3.2 2.6-5.9 5.9-5.9h2.9c3.2.1 5.7 2.7 5.7 5.9V14zM61.6 107.9c-.5 1.2-1.3 3-1.5 3.4-.3.6-1.1 1.3-2.6 1.3H46.2V66.4h3.3c.8.1 1.5.7 1.5 1.5V108h10.6zM85.5 66.4c1.4 0 1.9 1.1 1.9 1.8v44.3H84c-1.1 0-1.3-.7-1.4-1V66.4h2.9zM128.6 79c0 1.6-.7 2.2-1.3 2.6-.3.2-2.2 1.1-3.4 1.6V72.6c0-1.4-1.1-2.5-2.5-2.5s-2.5 1.1-2.5 2.5v33.8c0 1.4 1.1 2.5 2.5 2.5s2.5-1.1 2.5-2.5V92.6h-.2c-1.1 0-1.7-1.5-1.7-1.5l-1.6-3.3h5.9c1.5 0 2.3.8 2.3 2.6v16.8c0 3.2-2.6 5.7-5.7 5.9H120c-3.2 0-5.9-2.6-5.9-5.9V71.8c0-3.2 2.6-5.9 5.9-5.9h2.9c3.2.1 5.7 2.7 5.7 5.9V79zM167 66.4c1.5 0 1.9 1.1 1.9 1.8v44.3h-4.8v-20c-.1-.6-.5-1.1-1.1-1.1h-5.1v21.2h-4.8V68.3c0-.8.5-1.8 1.9-1.8h2.8v18.7c0 1.3.5 1.6 1.7 1.6h4.6V66.4h2.9zM208.3 69.8c-.3.6-1 1.3-2.5 1.3h-3.7c-.7 0-1.1.5-1.2 1.1v40.4h-3.4c-1.1 0-1.3-.7-1.3-1V71.1h-6.7v-3.2c0-.8.7-1.5 1.5-1.5h18.9l-1.6 3.4z"/></svg>